<svg width="27" height="40" viewBox="0 0 27 40" fill="none" xmlns="http://www.w3.org/2000/svg">
    <path d="M20.9853 10.2074C20.9868 10.2028 20.9868 10.1981 20.9883 10.1935C20.6443 9.30276 20.0986 8.07803 19.4274 7.22443C19.4794 7.96514 19.5849 8.89761 19.3694 9.88575C18.9367 11.8698 18.6615 12.8641 17.5593 13.6744C16.7062 14.3007 15.5795 14.1785 14.8687 13.7811C14.4268 13.5337 14.1761 13.1517 14.1226 12.6476C14.0217 11.7043 14.1257 10.8151 16.0963 8.25122C17.3376 6.63525 17.7305 4.5863 16.7857 2.77858C17.012 2.8961 17.2749 3.05074 17.5211 3.23166C17.5211 3.23166 18.7854 4.04197 20.1062 5.76464C20.4899 6.26412 21.8337 8.05638 23.0308 11.6904C23.0032 11.76 22.9742 11.8342 22.9451 11.9038C22.9727 11.9053 23.0017 11.91 23.0308 11.9131C23.1332 11.9285 23.1989 11.9548 23.2081 11.9564C23.2799 11.9703 25.9879 13.5938 26.5 11.5C25.7876 9.76805 21.8368 3.37548 17.6541 1.17807C15.8119 0.210034 14.0018 -0.0946034 12.1108 0.0244681C10.5315 0.12189 7.24927 0.32292 5.47895 4.33578C5.42544 4.38991 4.99433 4.75949 3.13076 4.96207C1.98724 5.08578 0.927803 5.0765 0.917101 5.07495H0.906399C0.411078 5.07495 0.00748281 5.47701 0.00136773 5.97959C-0.0643694 11.1801 2.25325 13.4455 3.99146 14.412C3.99452 14.4136 3.99604 14.4151 3.99757 14.4166C5.04478 15.0538 6.36717 15.2038 7.59324 15.2038C8.25825 15.2038 8.86365 15.1605 9.31616 15.1141C9.65708 17.2883 10.29 26.0826 5.98497 33.6289C3.22249 33.8361 1.6662 35.6964 1.6662 37.7315C1.6662 38.449 1.868 39.1696 2.26242 39.7928C2.26242 39.7928 2.30675 39.8747 2.40154 40C2.41835 39.9923 2.4367 39.9892 2.45504 39.983C2.5804 39.8979 2.73328 39.8392 2.91367 39.8222C2.97635 39.7897 3.04056 39.7603 3.11089 39.7402C3.20414 39.7278 3.2974 39.7155 3.38912 39.7015C3.43651 39.7 3.48085 39.7031 3.52518 39.7093C3.57257 39.6799 3.61997 39.649 3.66889 39.6196C3.89209 39.4835 4.13975 39.4495 4.37212 39.4943C4.41034 39.4773 4.44856 39.4634 4.48678 39.4526C3.79883 39.0644 3.47473 38.3979 3.47473 37.7315C3.47473 36.4263 4.60296 35.5031 6.33659 35.449C7.13155 35.6268 8.09468 36.083 8.49063 37.2242C8.65726 37.7036 9.17399 37.9526 9.64638 37.7856C10.1188 37.6186 10.3664 37.0943 10.2013 36.6181C9.79314 35.4413 8.97219 34.5521 7.83631 34.031C11.8692 26.5789 11.565 17.9919 11.1247 15.0522C11.0437 14.5094 10.8327 13.829 10.7914 13.7347C10.6278 13.362 10.2304 13.1362 9.8176 13.2058C9.03028 13.3357 6.88695 13.5646 5.40251 13.0605C5.35971 13.0466 5.31843 13.0311 5.27715 13.0141C3.6536 12.2981 2.57887 10.8909 2.09884 8.88369C2.68742 8.74916 3.53894 8.26359 4.09389 6.6801C5.80305 6.40639 6.77382 5.89917 7.12391 5.10124C7.96014 3.19301 9.14953 2.41827 10.4658 2.08734C11.1461 1.91569 12.8996 1.676 14.3917 2.68579C14.809 2.96878 15.1454 3.43115 15.3472 4.02187C15.6835 5.00846 15.4404 6.11103 14.6607 7.12546C12.6397 9.75585 12.1306 11.0981 12.3171 12.844C12.4349 13.9435 13.028 14.8465 13.9866 15.3847C15.3044 16.1239 17.0288 16.1486 18.3451 15.3259C19.7668 14.4398 20.5878 12.8641 20.9853 10.2074Z" fill="#3399FF"/>
</svg>
