<svg width="29" height="40" viewBox="0 0 29 40" fill="none" xmlns="http://www.w3.org/2000/svg">
    <path d="M24.8463 34.2005C24.8085 34.1904 24.7707 34.1831 24.7315 34.1787C21.1884 30.5455 19.5645 21.7467 20.5284 16.459C23.7516 16.2075 26.0196 14.3146 26.8657 11.0812C27.2394 9.65202 26.5764 8.54999 25.2011 8.28975C24.5265 8.16181 24.0787 7.76199 23.8316 7.06704C23.8243 7.04524 23.8156 7.02343 23.8054 7.00162C22.5056 4.11861 20.2536 3.76241 18.762 3.63011C18.762 3.62429 18.7678 3.61266 18.762 3.61266C18.2226 3.64319 17.5538 3.64174 17.9115 3.24483C18.8637 2.18787 19.0309 1.6892 19.1414 1.30538C19.3842 0.456319 18.4828 -0.0976036 17.8082 0.014344C14.1024 0.626421 10.4692 3.93687 8.55011 8.4235C8.29859 9.00941 7.87261 10.0169 7.33905 11.308C7.03083 12.0625 6.72262 12.8185 6.41585 13.5731C3.81055 20.0428 0 30.2126 0 34.343C0 35.4887 0.261694 36.5732 0.729835 37.5415C0.737104 37.5372 0.744372 37.5299 0.751642 37.5255C1.26485 37.2347 1.81732 37.1039 2.39159 37.0065C1.96561 36.2127 1.72282 35.3055 1.72282 34.343C1.72282 29.9771 6.62375 17.6628 8.27242 13.592C8.27242 13.5905 8.27097 13.5905 8.27097 13.5891C9.19126 11.3181 9.90365 9.64039 10.1348 9.09955C11.356 6.2427 13.8261 3.1576 16.8342 2.04976C14.5865 4.20293 15.3919 5.33113 16.2134 5.33113H18.4407C19.8262 5.44453 21.2713 5.60155 22.2207 7.67912C22.5943 8.69683 23.2922 9.42958 24.2241 9.79304C24.022 10.299 23.8664 11.1655 24.8682 11.6191C24.1107 13.4088 22.4489 15.0764 18.8507 14.7173C18.3752 14.6693 17.9551 15.0153 17.9071 15.4893C17.8606 15.9632 18.2051 16.3849 18.6791 16.4328C18.714 16.4358 18.7474 16.4387 18.7823 16.4416C18.3374 19.1894 18.4988 22.7877 19.233 26.2174C19.9948 29.7822 21.2844 32.7467 22.9156 34.7326C21.9924 35.2357 21.3193 36.0135 20.9689 37.0138C20.7712 37.5764 21.1914 38.1609 21.7816 38.1609C22.1378 38.1609 22.4707 37.9384 22.5943 37.5837C22.9694 36.5165 23.8766 36.0862 24.6312 35.9175C28.1931 36.0847 28.039 40 24.951 40H28.4315C28.8081 39.4141 29 38.7366 29 38.062C29 36.1284 27.4967 34.3779 24.8463 34.2005Z" fill="#FF914D"/>
</svg>
