<svg width="40" height="40" viewBox="0 0 40 40" fill="none" xmlns="http://www.w3.org/2000/svg">
<circle cx="20" cy="20" r="20" fill="#434F4C"/>
<path d="M9.45735 30.5455C9.45735 30.4826 9.45735 30.4295 9.45735 30.3765C9.45735 29.2045 9.46522 28.0325 9.45477 26.8606C9.44717 26.0155 9.67543 25.2357 10.0944 24.5028C10.6099 23.6014 11.3362 22.8872 12.2037 22.3013C13.0198 21.7502 13.9133 21.3528 14.8576 21.0582C15.5974 20.8274 16.3532 20.6645 17.1222 20.5556C17.785 20.4616 18.4501 20.3949 19.1198 20.3807C19.6348 20.3697 20.1502 20.3566 20.6648 20.3685C21.2049 20.3809 21.7441 20.4196 22.2819 20.4792C23.1653 20.5769 24.0352 20.7353 24.8874 20.9819C25.9382 21.2861 26.9304 21.7116 27.8302 22.3254C28.6731 22.9003 29.3784 23.5998 29.8875 24.4744C30.2199 25.0453 30.4395 25.6532 30.5173 26.3056C30.5363 26.4662 30.5438 26.629 30.5441 26.7908C30.5463 27.9918 30.5454 29.1929 30.545 30.3939C30.545 30.4426 30.54 30.4914 30.5369 30.5456C23.5105 30.5455 16.4956 30.5455 9.45735 30.5455Z" fill="white"/>
<path d="M26.1817 13.4637C26.1873 16.8783 23.3889 19.6394 19.9952 19.6366C16.6364 19.6338 13.803 16.906 13.8182 13.4256C13.8331 9.99292 16.6371 7.25195 20.0403 7.27307C23.4548 7.29419 26.198 10.0845 26.1817 13.4637Z" fill="white"/>
</svg>
