<svg width="67" height="60" viewBox="0 0 67 60" fill="none" xmlns="http://www.w3.org/2000/svg">
<path d="M41.7027 40.4533C36.2446 40.4533 30.7865 40.4668 25.3302 40.4379C24.5728 40.4341 24.4379 40.567 24.6249 41.3399C25.4324 44.6934 25.7273 44.9652 29.1348 44.9652C37.771 44.9652 46.4073 44.9517 55.0436 44.9729C58.3161 44.9806 61.1493 47.195 61.9992 50.3057C62.8318 53.3547 61.606 56.6254 58.9271 58.2462C56.2173 59.8864 53.4497 59.9191 50.7804 58.1634C48.3307 56.5521 47.1859 53.4935 47.8701 50.4792C48.0416 49.7237 47.9973 49.4808 47.1339 49.4866C42.3503 49.5252 37.5667 49.5194 32.7831 49.4905C32.1144 49.4866 31.9197 49.6292 31.9679 50.3289C32.0623 51.7011 32.0874 53.0849 31.7328 54.4398C30.5475 58.9825 24.8561 60.9483 20.8608 58.1923C17.3338 55.76 16.6227 51.5932 19.1474 48.1144C19.4481 47.7 19.7218 47.2201 20.1246 46.9349C21.1114 46.2372 21.0632 45.4027 20.8069 44.3523C17.7733 31.9019 14.7802 19.4418 11.7755 6.98562C11.4189 5.51123 10.8793 5.08337 9.36057 5.08144C7.01697 5.07951 4.67336 5.09686 2.32975 5.07566C0.672268 5.06024 -0.0716728 4.27968 0.0054195 2.71856C0.0651661 1.49472 0.803325 0.69296 2.09077 0.673687C4.97787 0.629359 7.86884 0.590812 10.754 0.68525C12.9646 0.758488 15.1386 2.60485 15.8055 4.82318C16.191 6.10677 16.4897 7.41927 16.7749 8.72984C17.0351 9.92091 17.2066 10.1021 18.4305 10.1021C33.423 10.1021 48.4156 10.0982 63.4081 10.1002C63.9824 10.1002 64.5702 10.0944 65.1311 10.2023C66.6093 10.4856 67.2338 11.3471 66.9216 12.8196C66.3723 15.4137 65.7459 17.9925 65.1292 20.5712C63.7415 26.384 62.3442 32.1929 60.9373 37.9999C60.4477 40.0197 59.885 40.4495 57.7861 40.4514C52.4263 40.4572 47.0645 40.4533 41.7027 40.4533ZM56.3638 14.5387C56.3638 14.5445 56.3638 14.5522 56.3638 14.558C54.8258 14.558 53.2897 14.5542 51.7517 14.5599C50.6551 14.5638 50.3872 14.8182 50.3024 15.8782C50.1309 18.0137 49.969 20.1511 49.757 22.2846C49.6991 22.8744 49.8206 23.0459 50.4373 23.0362C53.2242 22.9977 56.0111 22.9938 58.798 23.0208C59.5843 23.0285 59.9621 22.6855 60.1355 21.9647C60.6809 19.7039 61.236 17.4451 61.8007 15.1882C61.9241 14.6949 61.8181 14.5156 61.2649 14.5272C59.6306 14.5619 57.9981 14.5387 56.3638 14.5387ZM40.0857 14.6409C38.4475 14.6409 36.8093 14.6814 35.1749 14.6235C34.4483 14.5985 34.2402 14.7835 34.3134 15.5197C34.5428 17.8171 34.7182 20.1183 34.8858 22.4214C34.9186 22.8666 35.0497 23.0324 35.5103 23.0285C38.4629 23.0073 41.4175 23.0112 44.3701 23.0073C44.9445 23.0054 45.2471 22.7337 45.2933 22.142C45.4648 19.8716 45.6402 17.6012 45.8464 15.3347C45.8966 14.7893 45.752 14.6197 45.1931 14.6313C43.4893 14.664 41.7875 14.6409 40.0857 14.6409ZM24.0004 14.6775C22.3024 14.6775 20.6045 14.6968 18.9085 14.6659C18.363 14.6563 18.2493 14.8086 18.3823 15.327C18.9509 17.5511 19.5136 19.7772 20.0263 22.0148C20.1843 22.7086 20.5621 23.0016 21.2154 23.0035C24.0987 23.015 26.98 23.0073 29.8633 23.0266C30.3123 23.0305 30.4665 22.9322 30.4203 22.4349C30.2063 20.0778 30.0232 17.7169 29.8594 15.3559C29.8228 14.8182 29.6204 14.6563 29.0924 14.6659C27.3963 14.6949 25.6984 14.6775 24.0004 14.6775ZM40.0896 27.5828C38.6807 27.5828 37.2719 27.5789 35.8611 27.5866C35.5932 27.5885 35.2655 27.4999 35.3118 27.9991C35.5411 30.4506 35.7685 32.9041 35.9516 35.3614C35.994 35.9338 36.2947 35.9203 36.7033 35.9184C38.9139 35.9087 41.1245 35.8875 43.3332 35.9299C43.975 35.9415 44.2198 35.77 44.2641 35.1147C44.4183 32.7518 44.6053 30.3928 44.8192 28.0338C44.8712 27.4556 44.505 27.5885 44.2217 27.5866C42.8437 27.577 41.4657 27.5828 40.0896 27.5828ZM26.1204 27.5828C24.7733 27.5828 23.4261 27.5943 22.0789 27.577C21.5893 27.5712 21.3099 27.5751 21.4853 28.2438C22.077 30.4969 22.607 32.7672 23.1331 35.0376C23.2912 35.7179 23.6439 35.9685 24.3435 35.9608C26.4597 35.9376 28.5758 35.9434 30.692 35.9993C31.3646 36.0167 31.4841 35.7796 31.4302 35.1821C31.2143 32.8212 31.0139 30.4583 30.8539 28.0935C30.8173 27.5519 30.5301 27.577 30.162 27.5789C28.8148 27.5847 27.4676 27.5828 26.1204 27.5828ZM54.0915 27.604C52.7134 27.604 51.3354 27.604 49.9574 27.604C49.6394 27.604 49.3541 27.5442 49.3195 28.0569C49.1537 30.4834 48.9475 32.9079 48.7355 35.3305C48.6931 35.8143 48.8068 36.0032 49.3368 35.9935C51.5474 35.955 53.758 35.9454 55.9687 35.955C56.5989 35.9569 56.8938 35.6678 57.0287 35.0896C57.5645 32.7923 58.0887 30.4911 58.6765 28.2053C58.8384 27.5751 58.5667 27.5943 58.1273 27.5982C56.782 27.6136 55.4367 27.604 54.0915 27.604ZM27.7625 52.2215C27.7779 50.6854 26.5098 49.4057 24.9698 49.4018C23.4107 49.398 22.1618 50.6488 22.1714 52.2041C22.181 53.7421 23.3605 54.9313 24.9082 54.9602C26.4751 54.9929 27.7471 53.771 27.7625 52.2215ZM52.1545 52.0981C52.089 53.6496 53.2859 54.912 54.8701 54.9621C56.4312 55.0122 57.6936 53.8192 57.7437 52.2446C57.7919 50.7683 56.5816 49.4885 55.0628 49.4095C53.5306 49.3286 52.2201 50.5389 52.1545 52.0981Z" fill="white"/>
</svg>
