<svg width="30" height="30" viewBox="0 0 30 30" fill="none" xmlns="http://www.w3.org/2000/svg">
<path d="M15.0182 9.20793C15.2045 9.03015 15.3463 8.89999 15.4818 8.76454C18.1507 6.09788 20.8356 3.44497 23.4802 0.753961C24.3755 -0.15715 25.4073 -0.224875 26.2995 0.747612C27.2519 1.78571 28.2636 2.77407 29.2986 3.73068C30.2214 4.58465 30.1812 5.70211 29.2891 6.5783C26.5863 9.23015 23.93 11.9275 21.2346 14.5878C20.8769 14.9413 20.9033 15.1296 21.243 15.4661C23.9205 18.118 26.5767 20.7899 29.2436 23.4534C30.2511 24.4598 30.2553 25.3518 29.2468 26.355C28.2361 27.3603 27.2286 28.3688 26.219 29.3751C25.3809 30.2111 24.4327 30.21 23.585 29.3645C20.88 26.6651 18.1708 23.9709 15.4828 21.2555C15.1241 20.8936 14.9262 20.8915 14.5664 21.2555C11.9302 23.9243 9.25276 26.5529 6.62824 29.2333C5.68849 30.1931 4.59211 30.2407 3.67353 29.228C2.72743 28.1846 1.68291 27.2312 0.687076 26.2312C-0.221983 25.318 -0.231508 24.4873 0.676493 23.5751C3.36345 20.8757 6.05888 18.1857 8.75008 15.4905C8.89612 15.3444 9.03158 15.1878 9.24535 14.9571C8.45693 14.1952 7.6918 13.4725 6.94678 12.7307C4.86197 10.6534 2.78352 8.57195 0.706125 6.48941C-0.232566 5.54867 -0.223041 4.70211 0.726232 3.75396C1.72313 2.75819 2.72002 1.76243 3.71692 0.765601C4.72969 -0.246039 5.52234 -0.257679 6.52241 0.740205C9.18926 3.40264 11.8529 6.06825 14.5187 8.73174C14.6648 8.87989 14.8193 9.01957 15.0182 9.20793Z" fill="black"/>
</svg>
