<svg width="85" height="92" viewBox="0 0 85 92" fill="none" xmlns="http://www.w3.org/2000/svg">
<path d="M51.3055 48.5553C51.4776 48.624 51.6479 48.7039 51.8145 48.7931C52.2791 49.0422 52.6752 49.3581 53.0695 49.4622C53.1657 49.4863 53.2508 49.5197 53.3323 49.5588C53.8635 48.3564 54.1615 47.0295 54.1615 45.6321C54.1615 42.6903 52.4161 36.4146 48.9714 26.9816C48.1848 24.8259 47.3851 22.7204 46.6374 20.7988L45.4897 24.077C48.5068 32.0159 51.9015 41.9284 51.9015 45.6339C51.9015 46.669 51.6886 47.6558 51.3055 48.5553Z" fill="#3399FF"/>
<path d="M40.6826 16.4745C40.6844 16.4689 40.6844 16.4633 40.6863 16.4559C40.2569 15.3539 39.5775 13.8394 38.7409 12.7838C38.8057 13.7 38.9371 14.854 38.6687 16.075C38.1301 18.528 37.7858 19.7582 36.4124 20.7617C35.3499 21.5367 33.945 21.3861 33.0584 20.8937C32.5087 20.587 32.1959 20.115 32.1274 19.4906C32.0016 18.3236 32.1311 17.2253 34.5873 14.0531C36.1329 12.0553 36.6234 9.52052 35.4462 7.28306C35.7294 7.42801 36.0552 7.61943 36.3624 7.84243C36.3624 7.84243 37.9376 8.84408 39.5849 10.9756C40.0625 11.5926 41.7376 13.8096 43.2295 18.3069C43.1943 18.3942 43.1592 18.4834 43.124 18.5726C43.1592 18.5744 43.1943 18.58 43.2314 18.5856C43.3591 18.606 43.4405 18.6358 43.4535 18.6395C43.5442 18.6562 43.8033 17.9185 44.4419 15.3279C43.5534 13.1852 41.745 8.0264 36.5346 5.30763C34.2394 4.11084 31.983 3.73361 29.6268 3.88042C27.6592 4.00121 23.5686 4.25023 21.3622 9.2139C21.2956 9.2808 20.7588 9.73796 18.4358 9.98698C17.0106 10.1412 15.689 10.1282 15.676 10.1282H15.6631C15.0467 10.1282 14.5432 10.6263 14.534 11.247C14.4507 17.6806 17.34 20.4811 19.5057 21.6779C19.5094 21.6798 19.5112 21.6816 19.5149 21.6835C20.8199 22.4714 22.4672 22.6573 23.9961 22.6573C24.8254 22.6573 25.5805 22.6034 26.1432 22.5476C26.5671 25.2367 27.3556 36.1136 21.9915 45.45C18.5487 45.7065 16.6108 48.009 16.6108 50.5252C16.6108 51.4135 16.8625 52.3036 17.3549 53.0749C17.3549 53.0749 17.4104 53.1752 17.5289 53.3313C17.5511 53.322 17.5733 53.3183 17.5955 53.309C17.7528 53.2031 17.9416 53.1306 18.1674 53.1102C18.2452 53.0693 18.3266 53.034 18.4136 53.0098C18.5302 52.995 18.645 52.9782 18.7616 52.9634C18.819 52.9615 18.8764 52.9652 18.9319 52.9726C18.9911 52.9355 19.0503 52.8983 19.1096 52.8611C19.3872 52.692 19.6963 52.6493 19.9869 52.7069C20.0332 52.6865 20.0813 52.6697 20.1313 52.6549C19.2743 52.1754 18.8708 51.3503 18.8708 50.5252C18.8708 48.9103 20.2757 47.7692 22.4376 47.7005C23.4279 47.9216 24.6291 48.4847 25.1215 49.8971C25.3288 50.4899 25.9729 50.7984 26.5616 50.5921C27.1502 50.3858 27.4593 49.7373 27.2538 49.1463C26.7448 47.6893 25.7212 46.5911 24.3071 45.9462C29.3325 36.7288 28.953 26.1064 28.4051 22.4714C28.3033 21.8005 28.0423 20.9587 27.9887 20.8417C27.7832 20.3808 27.289 20.102 26.7763 20.1856C25.7953 20.3473 23.1225 20.6298 21.2734 20.0054C21.2197 19.9868 21.1678 19.9682 21.1179 19.9496C19.0948 19.0651 17.7565 17.3238 17.1568 14.841C17.8898 14.6738 18.9522 14.0735 19.6426 12.1148C21.7731 11.7766 22.9836 11.1484 23.4186 10.1617C24.4607 7.80154 25.9433 6.8445 27.5833 6.4338C28.431 6.22195 30.617 5.92461 32.4754 7.17343C32.9955 7.5228 33.4138 8.09517 33.6656 8.82551C34.0857 10.0464 33.7822 11.4086 32.8104 12.6649C30.2913 15.9189 29.6564 17.5784 29.8896 19.7378C30.0358 21.0981 30.7743 22.215 31.9701 22.8803C33.6119 23.7946 35.7627 23.8243 37.4027 22.8078C39.1629 21.7076 40.1865 19.7601 40.6826 16.4745Z" fill="#3399FF"/>
<path d="M67.7198 44.9966C67.6716 44.9836 67.6198 44.9743 67.5699 44.9687C62.9276 40.189 60.799 28.6115 62.0614 21.6556C66.2853 21.3248 69.2561 18.8328 70.3667 14.579C70.8572 12.6983 69.9872 11.2488 68.1862 10.905C67.3033 10.7359 66.7166 10.21 66.3926 9.2957C66.3815 9.26596 66.3704 9.23807 66.3575 9.2102C64.6527 5.41729 61.7042 4.94898 59.7477 4.7743C59.7477 4.76686 59.7551 4.752 59.7477 4.752C59.0406 4.79288 58.1632 4.78917 58.6315 4.26883C59.8791 2.87878 60.0994 2.22278 60.2437 1.71731C60.5621 0.600434 59.3812 -0.128044 58.4964 0.0187658C53.6395 0.823435 48.8788 5.17943 46.3633 11.0834C46.0339 11.8547 45.4749 13.1796 44.7752 14.8782C44.3717 15.8724 43.9682 16.8648 43.5647 17.859C40.1497 26.3721 35.1558 39.7505 35.1558 45.1843C35.1558 46.6914 35.5 48.1187 36.1127 49.3935C36.122 49.3879 36.1312 49.3786 36.1405 49.373C36.8142 48.9902 37.5379 48.8192 38.2894 48.691C37.7304 47.6466 37.4139 46.4536 37.4139 45.1862C37.4139 39.442 43.8368 23.2408 45.9969 17.885C45.9969 17.8832 45.995 17.8832 45.995 17.8813C47.2 14.8931 48.1347 12.6853 48.4383 11.9754C50.0394 8.21783 53.2748 4.15734 57.2174 2.70039C54.2707 5.53252 55.3257 7.01735 56.4048 7.01735H59.3238C61.1377 7.16787 63.0331 7.37229 64.277 10.1059C64.7656 11.4458 65.6819 12.4084 66.9017 12.886C66.637 13.5513 66.4334 14.6924 67.7457 15.2889C66.7517 17.6434 64.575 19.8381 59.8606 19.3643C59.2387 19.3011 58.6871 19.7564 58.6241 20.3808C58.563 21.0033 59.0147 21.559 59.6348 21.6222C59.6792 21.6259 59.7236 21.6296 59.7699 21.6333C59.1868 25.2497 59.3997 29.9829 60.3603 34.495C61.358 39.1837 63.048 43.0862 65.1858 45.6972C63.9753 46.3588 63.0942 47.3827 62.6352 48.6984C62.376 49.4381 62.9276 50.2074 63.6995 50.2074C64.1659 50.2074 64.6028 49.9157 64.7656 49.4492C65.2561 48.0462 66.4463 47.4794 67.4347 47.2564C72.1029 47.4757 71.9011 52.627 67.8531 52.627H72.4138C72.9062 51.8558 73.1579 50.9638 73.1579 50.0774C73.1616 47.5314 71.1922 45.2308 67.7198 44.9966Z" fill="#FF914D"/>
<path d="M16.4663 53.8719C16.4663 53.8719 26.4541 48.4753 37.7135 52.3871C48.9729 56.2971 51.3755 58.6312 62.2703 53.4055C62.2703 53.4055 55.803 62.1416 36.5326 54.3997C36.5326 54.4016 25.4879 49.817 16.4663 53.8719Z" fill="#3399FF"/>
<path d="M34.2266 50.0736C34.2266 50.0736 44.2144 44.6769 55.4738 48.5869C66.7314 52.4969 69.1339 54.8329 80.0287 49.6072C80.0287 49.6072 73.5633 58.3415 54.2929 50.6014C54.2929 50.6014 43.2482 46.0187 34.2266 50.0736Z" fill="#FF914D"/>
<path d="M4.0835 58.9938C4.0835 58.9938 14.0731 53.5971 25.3307 57.5089C36.5883 61.4171 38.9927 63.753 49.8875 58.5273C49.8875 58.5273 43.4202 67.2635 24.1498 59.5197C24.1498 59.5197 13.107 54.9388 4.0835 58.9938Z" fill="#FF914D"/>
<path d="M9.39179 75.8972V73.3382H17.7767V84.1948H14.1914V78.9301C13.6379 82.6784 11.7129 84.5516 8.4145 84.5516C6.79491 84.5516 5.34744 84.1205 4.07398 83.2582C2.80051 82.3959 1.80283 81.1954 1.08096 79.6585C0.359081 78.1217 0 76.3711 0 74.4087C0 72.3868 0.390566 70.6009 1.16982 69.0547C1.94908 67.5086 3.05594 66.3137 4.48859 65.47C5.92124 64.6281 7.58525 64.2063 9.48064 64.2063C11.5148 64.2063 13.2585 64.7025 14.7096 65.693C16.1608 66.6853 17.1844 68.0717 17.7767 69.8575L13.9248 71.1956C13.7656 70.0266 13.2733 69.0882 12.444 68.3839C11.6148 67.6796 10.5672 67.3283 9.30295 67.3283C8.21643 67.3283 7.24467 67.6257 6.38398 68.2203C5.52513 68.815 4.85879 69.6476 4.38495 70.7199C3.9111 71.7903 3.67416 73.0093 3.67416 74.3789C3.67416 75.7467 3.91665 76.9658 4.39975 78.038C4.88285 79.1085 5.55475 79.941 6.4136 80.5375C7.27245 81.1341 8.24606 81.4295 9.33257 81.4295C10.6949 81.4295 11.8221 80.9835 12.7106 80.0915C13.599 79.1995 14.0933 78.0195 14.1914 76.5514V75.8972H9.39179Z" fill="#3399FF"/>
<path d="M28.7383 84.5517C27.2575 84.5517 25.9582 84.2395 24.842 83.6151C23.7259 82.9907 22.867 82.1024 22.2636 80.9521C21.6602 79.8018 21.3604 78.4526 21.3604 76.9065C21.3604 75.3603 21.6621 74.0056 22.2636 72.8459C22.8652 71.6863 23.7259 70.7943 24.842 70.1681C25.9582 69.5437 27.2557 69.2314 28.7383 69.2314C30.2191 69.2314 31.5185 69.5437 32.6346 70.1681C33.7507 70.7925 34.6096 71.6845 35.213 72.8459C35.8145 74.0056 36.1162 75.3603 36.1162 76.9065C36.1162 78.4526 35.8145 79.8018 35.213 80.9521C34.6096 82.1024 33.7507 82.9888 32.6346 83.6151C31.5185 84.2395 30.2209 84.5517 28.7383 84.5517ZM31.4648 80.4169C32.1755 79.5044 32.5309 78.3355 32.5309 76.9065C32.5309 75.4588 32.1755 74.2787 31.4648 73.3663C30.754 72.4538 29.8452 71.9985 28.7383 71.9985C27.6129 71.9985 26.6948 72.4557 25.9822 73.3663C25.2714 74.2787 24.916 75.4588 24.916 76.9065C24.916 78.3337 25.2714 79.5044 25.9822 80.4169C26.693 81.3293 27.6111 81.7847 28.7383 81.7847C29.8452 81.7865 30.754 81.3293 31.4648 80.4169Z" fill="#3399FF"/>
<path d="M53.6688 66.1856C54.9034 67.2857 55.5198 68.8876 55.5198 70.9894C55.5198 73.0708 54.9016 74.6578 53.6688 75.7487C52.4342 76.8395 50.6425 77.384 48.2918 77.384H43.433V84.1949H39.8477V64.5632H48.2918C50.6425 64.5446 52.4342 65.0836 53.6688 66.1856ZM47.7291 74.7359C49.1117 74.7359 50.1427 74.4441 50.8257 73.8587C51.5069 73.2733 51.8475 72.3869 51.8475 71.1957C51.8475 69.9859 51.5069 69.0883 50.8257 68.5029C50.1446 67.9176 49.1117 67.6258 47.7291 67.6258H43.433V74.734H47.7291V74.7359Z" fill="#3399FF"/>
<path d="M61.239 77.4732C61.3371 78.802 61.7276 79.8631 62.4088 80.6566C63.0899 81.4501 63.9747 81.846 65.0612 81.846C65.9885 81.846 66.7641 81.5431 67.386 80.9391C68.008 80.3351 68.3578 79.5453 68.4374 78.5734L71.8746 79.7627C71.4989 81.2104 70.6993 82.37 69.4758 83.2434C68.2504 84.1169 66.7789 84.5517 65.0612 84.5517C63.5804 84.5517 62.2866 84.2395 61.1797 83.6151C60.0729 82.9907 59.2196 82.1024 58.6162 80.9521C58.0127 79.8018 57.7129 78.4526 57.7129 76.9065C57.7129 75.3603 58.0146 74.0056 58.6162 72.8459C59.2177 71.6863 60.0729 70.7943 61.1797 70.1681C62.2866 69.5437 63.5804 69.2314 65.0612 69.2314C66.4642 69.2314 67.6988 69.5102 68.765 70.064C69.8312 70.6196 70.6567 71.402 71.2397 72.4129C71.8228 73.4239 72.1134 74.5835 72.1134 75.8936C72.1134 76.3508 72.0634 76.8748 71.9653 77.4695H61.239V77.4732ZM68.4966 75.5684C68.3967 74.459 68.0413 73.5763 67.4305 72.9203C66.8178 72.2661 66.0274 71.939 65.0612 71.939C64.0932 71.939 63.2787 72.2624 62.6161 72.9054C61.9535 73.5503 61.524 74.4367 61.3278 75.5684H68.4966Z" fill="#3399FF"/>
<path d="M85.0002 83.8081C84.0118 84.3043 82.8272 84.5514 81.4445 84.5514C78.285 84.5514 76.7042 82.9848 76.7042 79.8516V71.9685H73.5039V69.5879H74.2147C75.3401 69.5879 76.1397 69.3612 76.6154 68.9041C77.0892 68.4488 77.3262 67.685 77.3262 66.6127V65.1558H80.5265V66.6127C80.5265 67.6237 80.2933 68.3521 79.8305 68.7981C79.3659 69.2441 78.5422 69.508 77.3558 69.5861H84.4357V71.9666H80.1989V79.1641C80.1989 80.017 80.3525 80.647 80.6579 81.0521C80.9633 81.4591 81.4427 81.6617 82.0942 81.6617C82.9827 81.6617 83.7527 81.2659 84.4042 80.4724L85.0002 83.8081Z" fill="#3399FF"/>
<path d="M14.856 91.9255V87.4487H16.1239C16.5089 87.4487 16.8161 87.5435 17.042 87.7331C17.2678 87.9226 17.3807 88.1698 17.3807 88.4727C17.3807 88.7273 17.3122 88.9465 17.1752 89.1342C17.0383 89.3219 16.8494 89.4539 16.6088 89.5338V89.5468C16.9087 89.5821 17.1493 89.6955 17.3307 89.8887C17.5102 90.082 17.6009 90.331 17.6009 90.6395C17.6009 91.0223 17.464 91.3327 17.19 91.5706C16.9161 91.8084 16.5718 91.9273 16.1553 91.9273H14.856V91.9255ZM15.3779 87.9226V89.3684H15.9129C16.1998 89.3684 16.4237 89.2996 16.5885 89.1603C16.7513 89.0228 16.8347 88.8276 16.8347 88.5749C16.8347 88.14 16.5496 87.9226 15.9795 87.9226H15.3779ZM15.3779 89.8404V91.4516H16.0869C16.3941 91.4516 16.631 91.3791 16.8013 91.2323C16.9698 91.0874 17.0549 90.8867 17.0549 90.6321C17.0549 90.1043 16.6958 89.8386 15.9795 89.8386H15.3779V89.8404Z" fill="#FF914D"/>
<path d="M21.9583 91.9255H21.379L20.907 90.6711H19.0171L18.5729 91.9255H17.9917L19.702 87.4487H20.2425L21.9583 91.9255ZM20.7367 90.1991L20.037 88.2906C20.0148 88.2274 19.9907 88.1289 19.9685 87.9914H19.9556C19.9352 88.1177 19.9111 88.2181 19.8834 88.2906L19.1893 90.1991H20.7367Z" fill="#FF914D"/>
<path d="M25.8118 91.9257H25.1898L24.4439 90.6713C24.3754 90.5542 24.3088 90.4557 24.244 90.374C24.1792 90.2922 24.1144 90.2253 24.0459 90.1733C23.9793 90.1212 23.9052 90.084 23.8275 90.0599C23.7498 90.0357 23.6628 90.0246 23.5647 90.0246H23.1352V91.9294H22.6133V87.4526H23.9441C24.1385 87.4526 24.318 87.4768 24.4828 87.527C24.6475 87.5753 24.79 87.6496 24.9122 87.7499C25.0343 87.8503 25.1287 87.9748 25.1972 88.1235C25.2657 88.2721 25.299 88.4468 25.299 88.6457C25.299 88.8018 25.275 88.9449 25.2287 89.075C25.1824 89.2051 25.1158 89.3221 25.0288 89.4225C24.9436 89.5247 24.84 89.612 24.7178 89.6827C24.5957 89.7533 24.4606 89.8109 24.3088 89.8499V89.8629C24.3828 89.8964 24.4476 89.9335 24.5031 89.9763C24.5586 90.019 24.6105 90.0692 24.6604 90.1287C24.7104 90.1863 24.7585 90.2532 24.8085 90.3275C24.8585 90.4018 24.9122 90.4873 24.9714 90.5858L25.8118 91.9257ZM23.1371 87.9228V89.547H23.846C23.9774 89.547 24.0978 89.5266 24.2088 89.4875C24.3199 89.4485 24.4161 89.3909 24.4957 89.3165C24.5771 89.2422 24.6401 89.153 24.6845 89.0452C24.7308 88.9374 24.753 88.8185 24.753 88.6847C24.753 88.445 24.6752 88.2591 24.5216 88.1235C24.368 87.9878 24.144 87.9228 23.8516 87.9228H23.1371Z" fill="#FF914D"/>
<path d="M29.5264 91.9255H28.799L27.0758 89.8776C27.011 89.7995 26.9721 89.7494 26.9573 89.7215H26.9443V91.9255H26.4224V87.4487H26.9443V89.5524H26.9573C26.9869 89.5059 27.0258 89.4558 27.0758 89.4L28.7416 87.4487H29.3913L27.4793 89.597L29.5264 91.9255Z" fill="#FF914D"/>
<path d="M37.6653 91.9255H35.3516V87.4487H35.8735V91.4516H37.6653V91.9255Z" fill="#FF914D"/>
<path d="M40.1459 91.9999C39.5129 91.9999 39.0076 91.7899 38.6263 91.3717C38.245 90.9536 38.0562 90.4091 38.0562 89.7382C38.0562 89.0172 38.2505 88.443 38.6374 88.0155C39.0242 87.5863 39.5517 87.3726 40.2199 87.3726C40.8363 87.3726 41.3324 87.5807 41.7081 87.997C42.0839 88.4133 42.2727 88.9578 42.2727 89.6305C42.2727 90.3608 42.0802 90.9387 41.6933 91.3624C41.3102 91.788 40.7937 91.9999 40.1459 91.9999ZM40.1848 87.8483C39.7165 87.8483 39.3352 88.0174 39.0427 88.3575C38.7503 88.6976 38.6041 89.1417 38.6041 89.6936C38.6041 90.2456 38.7466 90.6898 39.0316 91.0261C39.3167 91.3625 39.6887 91.5297 40.1459 91.5297C40.6346 91.5297 41.0214 91.3699 41.3028 91.0484C41.5841 90.7288 41.7248 90.279 41.7248 89.7029C41.7248 89.112 41.5878 88.6549 41.3139 88.3315C41.0418 88.0081 40.6642 87.8483 40.1848 87.8483Z" fill="#FF914D"/>
<path d="M46.4651 87.4486L44.814 91.9254H44.2383L42.6206 87.4486H43.2018L44.4364 90.9981C44.4753 91.1133 44.5067 91.2453 44.5271 91.3939H44.5401C44.5567 91.2694 44.59 91.1356 44.6419 90.9906L45.9005 87.4468H46.4651V87.4486Z" fill="#FF914D"/>
<path d="M49.4692 91.9255H47.1055V87.4487H49.3692V87.9226H47.6275V89.4111H49.2378V89.8832H47.6275V91.4498H49.4692V91.9255Z" fill="#FF914D"/>
<path d="M58.5962 91.7378C58.2668 91.9125 57.8558 91.9999 57.3653 91.9999C56.7304 91.9999 56.2233 91.7955 55.842 91.3848C55.4607 90.9741 55.27 90.437 55.27 89.7699C55.27 89.0544 55.4848 88.4746 55.9142 88.0341C56.3436 87.5919 56.8878 87.3726 57.5467 87.3726C57.9687 87.3726 58.3204 87.4339 58.5981 87.5565V88.1159C58.2779 87.9375 57.9262 87.8464 57.5412 87.8464C57.0284 87.8464 56.6138 88.0174 56.2955 88.3612C55.9771 88.705 55.8179 89.164 55.8179 89.7382C55.8179 90.2827 55.966 90.7176 56.264 91.041C56.562 91.3643 56.9526 91.526 57.4357 91.526C57.8836 91.526 58.2705 91.4256 58.5981 91.2268V91.7378H58.5962Z" fill="#FF914D"/>
<path d="M62.9549 91.9255H62.3755L61.9036 90.6711H60.0137L59.5695 91.9255H58.9883L60.6986 87.4487H61.239L62.9549 91.9255ZM61.7333 90.1991L61.0336 88.2906C61.0114 88.2274 60.9873 88.1289 60.9651 87.9914H60.9522C60.9318 88.1177 60.9077 88.2181 60.88 88.2906L60.1859 90.1991H61.7333Z" fill="#FF914D"/>
<path d="M66.8088 91.9257H66.1869L65.441 90.6713C65.3725 90.5542 65.3058 90.4557 65.241 90.374C65.1763 90.2922 65.1115 90.2253 65.043 90.1733C64.9764 90.1212 64.9023 90.084 64.8246 90.0599C64.7468 90.0357 64.6599 90.0246 64.5618 90.0246H64.1323V91.9294H63.6104V87.4526H64.9412C65.1355 87.4526 65.3151 87.4768 65.4798 87.527C65.6446 87.5753 65.7871 87.6496 65.9093 87.7499C66.0314 87.8503 66.1258 87.9748 66.1943 88.1235C66.2628 88.2721 66.2961 88.4468 66.2961 88.6457C66.2961 88.8018 66.272 88.9449 66.2258 89.075C66.1795 89.2051 66.1129 89.3221 66.0259 89.4225C65.9407 89.5247 65.8371 89.612 65.7149 89.6827C65.5927 89.7533 65.4576 89.8109 65.3058 89.8499V89.8629C65.3799 89.8964 65.4447 89.9335 65.5002 89.9763C65.5557 90.019 65.6075 90.0692 65.6575 90.1287C65.7075 90.1863 65.7556 90.2532 65.8056 90.3275C65.8556 90.4018 65.9092 90.4873 65.9685 90.5858L66.8088 91.9257ZM64.1342 87.9228V89.547H64.8431C64.9745 89.547 65.0948 89.5266 65.2059 89.4875C65.3169 89.4485 65.4132 89.3909 65.4928 89.3165C65.5742 89.2422 65.6371 89.153 65.6816 89.0452C65.7278 88.9374 65.7501 88.8185 65.7501 88.6847C65.7501 88.445 65.6723 88.2591 65.5187 88.1235C65.3651 87.9878 65.1411 87.9228 64.8486 87.9228H64.1342Z" fill="#FF914D"/>
<path d="M69.7851 91.9255H67.4214V87.4487H69.6851V87.9226H67.9434V89.4111H69.5537V89.8832H67.9434V91.4498H69.7851V91.9255Z" fill="#FF914D"/>
</svg>
