<svg width="17" height="16" viewBox="0 0 17 16" fill="none" xmlns="http://www.w3.org/2000/svg">
<g clip-path="url(#clip0_2153_646)">
<path d="M1.30713 4.39721C1.62513 3.77572 2.0258 3.20848 2.50003 2.6899C3.25479 1.86432 4.14733 1.21629 5.17667 0.746377C5.84558 0.441115 6.54522 0.230298 7.27421 0.110078C8.11045 -0.0278382 8.94986 -0.0286076 9.78907 0.0658371C10.527 0.148933 11.2365 0.342631 11.9185 0.628658C12.733 0.970274 13.4631 1.43846 14.1219 2.01378C14.1769 2.06168 14.1757 2.09034 14.1225 2.14054C13.3957 2.82608 12.6709 3.51374 11.9457 4.20082C11.9001 4.2441 11.8682 4.29257 11.7905 4.22467C11.0161 3.5474 10.1029 3.18193 9.06604 3.10557C7.85708 3.01632 6.75974 3.32081 5.77956 4.01001C5.06089 4.51531 4.52659 5.17085 4.15506 5.95083C4.08488 6.09837 4.03294 6.25398 3.97247 6.40594C3.95819 6.39882 3.94233 6.39344 3.92984 6.38401C3.76371 6.26033 3.59777 6.13626 3.43203 6.0122C3.24884 5.87486 3.06228 5.74079 2.88246 5.60018C2.58746 5.36955 2.28155 5.15277 1.98794 4.92079C1.76331 4.74364 1.52204 4.58668 1.30713 4.39721Z" fill="#EA4336"/>
<path d="M14.1282 14.0475C13.9559 14.2295 13.7531 14.3774 13.5505 14.5238C13.0304 14.8999 12.4672 15.2022 11.8627 15.4321C11.0929 15.7248 10.2945 15.8912 9.47157 15.9632C9.05603 15.9995 8.64029 16.012 8.22614 15.9864C6.87166 15.903 5.60283 15.5412 4.4355 14.8583C3.77392 14.4713 3.17916 14.006 2.6514 13.4601C2.12325 12.9142 1.68372 12.3073 1.33083 11.6416C1.32052 11.622 1.31457 11.6003 1.30664 11.5795C1.32369 11.5652 1.34034 11.5502 1.35819 11.5368C1.74736 11.2452 2.13673 10.9539 2.52571 10.662C2.89684 10.3834 3.2652 10.1016 3.63971 9.82754C3.75073 9.74617 3.85045 9.64827 3.97872 9.5896C4.09153 9.88659 4.21702 10.178 4.38098 10.4527C4.93272 11.3773 5.70394 12.069 6.71424 12.5007C7.8213 12.9736 8.96345 13.0046 10.1226 12.7238C10.6153 12.6043 11.0743 12.4033 11.4942 12.1227C11.5102 12.1119 11.5291 12.105 11.5465 12.0963C11.7212 12.2364 11.8913 12.382 12.0725 12.5137C12.1454 12.5668 12.2089 12.6313 12.2838 12.6792C12.5023 12.819 12.7055 12.9767 12.9077 13.1373C13.1076 13.296 13.3255 13.4332 13.5239 13.5932C13.7198 13.7517 13.9281 13.8944 14.1282 14.0475Z" fill="#35A753"/>
<path d="M14.1284 14.0476C13.9283 13.8945 13.72 13.7518 13.5237 13.5935C13.3252 13.4334 13.1073 13.2963 12.9075 13.1376C12.7053 12.977 12.5021 12.8191 12.2836 12.6794C12.2087 12.6313 12.1452 12.5671 12.0723 12.514C11.8913 12.3824 11.721 12.2366 11.5463 12.0966C11.7384 11.9418 11.9376 11.7954 12.1111 11.619C12.6805 11.0404 13.0649 10.3702 13.2047 9.57544C13.2154 9.51466 13.1995 9.501 13.144 9.50293C13.0913 9.50466 13.0384 9.50331 12.9856 9.50331C11.5859 9.50331 10.1863 9.50235 8.78658 9.50562C8.69419 9.50581 8.671 9.48177 8.67139 9.39406C8.67456 8.48173 8.67437 7.56941 8.67139 6.65709C8.67119 6.56995 8.68626 6.53667 8.78797 6.53687C11.2901 6.53994 13.7923 6.53994 16.2945 6.53706C16.3883 6.53687 16.4226 6.56072 16.4418 6.65132C16.5637 7.22472 16.6002 7.80427 16.5861 8.38787C16.5659 9.2296 16.4424 10.0565 16.1835 10.8609C15.9 11.7419 15.4723 12.5511 14.8782 13.2751C14.6644 13.5356 14.4329 13.7801 14.1827 14.0078C14.1662 14.023 14.1466 14.0345 14.1284 14.0476Z" fill="#4286F4"/>
<path d="M3.97884 9.5898C3.85057 9.64847 3.75085 9.74637 3.63983 9.82774C3.26533 10.1018 2.89697 10.3836 2.52583 10.6622C2.13686 10.954 1.74748 11.2452 1.35831 11.537C1.34047 11.5504 1.32401 11.5654 1.30676 11.5797C1.13805 11.296 1.0185 10.9909 0.90272 10.6849C0.785551 10.3748 0.693363 10.0568 0.618819 9.73503C0.526036 9.33474 0.470128 8.92888 0.438407 8.51936C0.407281 8.11639 0.412634 7.71495 0.454069 7.31332C0.487772 6.98748 0.532182 6.66452 0.602166 6.3431C0.669969 6.03168 0.753236 5.72507 0.860294 5.42577C0.980833 5.08896 1.11009 4.75427 1.28694 4.43959C1.29467 4.42593 1.30042 4.4115 1.30696 4.39746C1.52187 4.58673 1.76315 4.74369 1.98777 4.92123C2.28139 5.15321 2.58729 5.36999 2.8823 5.60062C3.06211 5.74123 3.24867 5.8753 3.43186 6.01264C3.5976 6.1369 3.76334 6.26096 3.92968 6.38445C3.94237 6.39388 3.95803 6.39907 3.9723 6.40638C3.86108 6.7453 3.78079 7.08981 3.73896 7.4447C3.70763 7.70956 3.69554 7.97405 3.711 8.23853C3.72567 8.4884 3.75739 8.73691 3.81191 8.98312C3.85751 9.18817 3.91957 9.38841 3.97884 9.5898Z" fill="#F9BB06"/>
</g>
<defs>
<clipPath id="clip0_2153_646">
<rect width="16.1707" height="16" fill="white" transform="translate(0.418457)"/>
</clipPath>
</defs>
</svg>
