<svg width="13" height="22" viewBox="0 0 13 22" fill="none" xmlns="http://www.w3.org/2000/svg">
<path d="M7.18885 21.9989C7.15219 21.9992 7.11552 21.9994 7.07886 21.9997C7.00022 21.9718 6.92158 21.9738 6.84321 22.0002C6.55017 22.0002 6.25739 22.0002 5.96435 22.0004C5.88598 21.9741 5.80733 21.9723 5.72896 21.9999C5.70106 21.9999 5.6729 21.9999 5.64501 21.9997C5.59373 21.9749 5.54192 21.9736 5.49012 21.9987C5.46674 21.9987 5.44362 21.9989 5.42024 21.9989C5.26695 21.9145 5.09426 21.9587 4.93167 21.9326C4.68512 21.893 4.43326 21.884 4.1883 21.8313C4.18804 18.7061 4.18777 15.5809 4.18698 12.4557C4.18698 12.2604 4.21381 12.2873 4.01136 12.287C2.91386 12.286 1.81635 12.2847 0.719105 12.2893C0.603536 12.2899 0.572718 12.2643 0.573249 12.1501C0.578031 10.9223 0.577765 9.6944 0.573515 8.46628C0.573249 8.35777 0.60513 8.33346 0.713526 8.33372C1.82432 8.33755 2.93511 8.33423 4.04564 8.33883C4.16519 8.33934 4.1907 8.3071 4.19016 8.19655C4.18565 7.199 4.18193 6.2012 4.1899 5.2034C4.19654 4.34558 4.33761 3.50926 4.70478 2.72079C5.35648 1.32198 6.49305 0.499732 8.02414 0.154762C8.7853 -0.0166989 9.55709 -0.0174667 10.3321 0.0196406C10.9994 0.0516296 11.6626 0.120214 12.3244 0.205945C12.4203 0.218484 12.5159 0.246123 12.6116 0.246635C12.7282 0.247147 12.7311 0.306774 12.7311 0.392505C12.729 1.42844 12.7274 2.46463 12.733 3.50056C12.7335 3.61879 12.6953 3.63875 12.5837 3.63798C11.9641 3.63312 11.3446 3.62851 10.7253 3.63901C10.3424 3.6454 9.97128 3.72576 9.63121 3.90362C9.01458 4.22607 8.7311 4.75478 8.64662 5.40301C8.60251 5.74286 8.62536 6.0845 8.6235 6.42512C8.62005 7.01781 8.6251 7.61051 8.62005 8.20294C8.61925 8.30736 8.64555 8.33858 8.75793 8.33832C9.97473 8.33423 11.1918 8.33576 12.4089 8.33602C12.5659 8.33602 12.5598 8.33551 12.5358 8.4824C12.4511 8.99883 12.3706 9.51628 12.2888 10.0332C12.1955 10.6213 12.1025 11.2094 12.009 11.7972C11.9891 11.9231 11.9506 12.0485 11.9498 12.1742C11.949 12.2937 11.8849 12.2873 11.8002 12.2873C10.8663 12.286 9.93275 12.2855 8.9989 12.2878C8.87696 12.2881 8.71463 12.2338 8.64422 12.3131C8.58418 12.381 8.62297 12.5322 8.62297 12.6466C8.62244 15.6525 8.62244 18.6582 8.62244 21.6642C8.62244 21.7195 8.62138 21.775 8.62085 21.8303C8.37589 21.885 8.12536 21.9019 7.87642 21.9283C7.74518 21.9424 7.61287 21.9477 7.48109 21.9559C7.44363 21.9582 7.41282 21.9715 7.38837 21.9987C7.3735 21.9987 7.35888 21.9987 7.34401 21.9987C7.29193 21.9731 7.24039 21.9743 7.18885 21.9989Z" fill="#FEFEFE"/>
</svg>
