<svg width="206" height="78" viewBox="0 0 206 78" fill="none" xmlns="http://www.w3.org/2000/svg">
<path d="M58.4926 59.9058C58.7074 59.9908 58.9174 60.0876 59.1227 60.1985C59.6986 60.5076 60.1871 60.8947 60.678 61.0221C60.796 61.0528 60.9045 61.0929 61.0013 61.1401C61.6597 59.658 62.0279 58.0202 62.0279 56.295C62.0279 52.6654 59.8638 44.9222 55.5992 33.2827C54.6246 30.623 53.6357 28.0246 52.7083 25.6528L51.2875 29.6979C55.0234 39.4942 59.2313 51.7237 59.2313 56.2927C59.2336 57.5789 58.9693 58.799 58.4926 59.9058Z" fill="white"/>
<path d="M45.3356 20.324C45.3379 20.3169 45.3379 20.3099 45.3403 20.3028C44.8093 18.9434 43.9668 17.0743 42.9307 15.7716C43.011 16.902 43.1738 18.3251 42.841 19.8331C42.1732 22.861 41.7484 24.3785 40.0468 25.6151C38.7299 26.5709 36.9906 26.3845 35.8932 25.778C35.2112 25.4004 34.8241 24.8175 34.7415 24.0481C34.5858 22.6085 34.7463 21.2515 37.7883 17.3386C39.7046 14.8724 40.3111 11.7454 38.8527 8.98659C39.2019 9.16595 39.6078 9.40195 39.9878 9.67807C39.9878 9.67807 41.9395 10.9147 43.9786 13.5437C44.5709 14.306 46.6454 17.0413 48.4932 22.5873C48.4508 22.6935 48.4059 22.8067 48.3611 22.9129C48.4036 22.9153 48.4484 22.9224 48.4932 22.9271C48.6514 22.9507 48.7528 22.9908 48.767 22.9932C48.8779 23.0144 49.1989 22.1035 49.9895 18.908C48.8897 16.2648 46.6501 9.89755 40.1931 6.54399C37.3493 5.06663 34.5551 4.60172 31.6358 4.78344C29.1979 4.93212 24.131 5.23892 21.3981 11.3631C21.3155 11.4457 20.65 12.0097 17.7732 12.3189C16.0079 12.5077 14.3724 12.4935 14.3559 12.4912H14.3394C13.5747 12.4912 12.9517 13.1048 12.9422 13.8718C12.8408 21.8085 16.4185 25.2659 19.1018 26.7409C19.1066 26.7432 19.1089 26.7456 19.1113 26.7479C20.7279 27.7203 22.7693 27.9492 24.662 27.9492C25.6886 27.9492 26.6231 27.8831 27.3217 27.8123C27.848 31.1305 28.825 44.5518 22.1793 56.0685C17.9148 56.3848 15.5123 59.2239 15.5123 62.3296C15.5123 63.4247 15.8238 64.5244 16.4327 65.4755C16.4327 65.4755 16.5011 65.6006 16.6474 65.7917C16.6734 65.7799 16.7017 65.7752 16.73 65.7658C16.9236 65.636 17.1596 65.5463 17.438 65.5203C17.5348 65.4708 17.6339 65.4259 17.7425 65.3953C17.8864 65.3764 18.0304 65.3575 18.172 65.3363C18.2452 65.3339 18.3136 65.3386 18.382 65.3481C18.4552 65.3032 18.5284 65.256 18.6039 65.2112C18.9484 65.0035 19.3307 64.9516 19.6895 65.02C19.7485 64.9941 19.8075 64.9728 19.8665 64.9563C18.8045 64.3639 18.3042 63.3468 18.3042 62.3296C18.3042 60.3378 20.0458 58.9289 22.7221 58.8463C23.9493 59.1177 25.4361 59.8139 26.0473 61.5555C26.3045 62.2871 27.1022 62.6671 27.8315 62.4122C28.5607 62.1573 28.943 61.3573 28.6881 60.6304C28.058 58.8345 26.7907 57.4775 25.0372 56.6821C31.2629 45.3093 30.7933 32.2042 30.1136 27.7179C29.9885 26.8895 29.6628 25.8511 29.5991 25.7072C29.3466 25.1384 28.733 24.7939 28.0958 24.9001C26.8804 25.0983 23.5717 25.4476 21.2801 24.6782C21.214 24.657 21.1503 24.6334 21.0866 24.6074C18.5803 23.5147 16.9212 21.3671 16.1802 18.3039C17.0888 18.0985 18.4033 17.3575 19.2599 14.9409C21.8984 14.5231 23.397 13.7491 23.9375 12.5313C25.2284 9.61907 27.0645 8.43671 29.0964 7.93167C30.1466 7.66971 32.8535 7.30391 35.1569 8.84499C35.8012 9.27687 36.3204 9.98251 36.6319 10.884C37.1511 12.3897 36.7759 14.0724 35.5723 15.6205C32.4523 19.6349 31.6665 21.6834 31.9544 24.3478C32.1361 26.0258 33.0518 27.404 34.5315 28.2253C36.5658 29.3534 39.2279 29.3911 41.2598 28.1356C43.4546 26.7833 44.722 24.3785 45.3356 20.324Z" fill="white"/>
<path d="M78.8263 55.5163C78.765 55.4997 78.7036 55.4879 78.6399 55.4809C72.8886 49.5832 70.2524 35.3005 71.8171 26.7172C77.0492 26.3089 80.7308 23.2362 82.1043 17.9876C82.7109 15.6677 81.6347 13.8788 79.4022 13.4564C78.3071 13.2487 77.5802 12.5997 77.179 11.4716C77.1672 11.4362 77.1531 11.4008 77.1366 11.3654C75.0267 6.68556 71.3711 6.10736 68.9497 5.8926C68.9497 5.88316 68.9592 5.86428 68.9497 5.86428C68.0742 5.91384 66.9886 5.91148 67.5691 5.2672C69.1149 3.55148 69.3863 2.742 69.5657 2.11896C69.9598 0.740723 68.4966 -0.158436 67.4016 0.023284C61.3859 1.01684 55.4883 6.39056 52.3731 13.6735C51.9648 14.6246 51.2733 16.2601 50.4072 18.3557C49.9069 19.5806 49.4066 20.8078 48.9086 22.0326C44.6795 32.5346 38.494 49.0428 38.494 55.7475C38.494 57.6072 38.9188 59.3678 39.6787 60.9395C39.6905 60.9325 39.7023 60.9207 39.7141 60.9136C40.5472 60.4416 41.444 60.2292 42.3762 60.0711C41.6847 58.7825 41.2906 57.3099 41.2906 55.7475C41.2906 48.6605 49.2461 28.6713 51.9223 22.0633C51.9223 22.0609 51.92 22.0609 51.92 22.0586C53.4139 18.3723 54.5703 15.6488 54.9455 14.7709C56.9279 10.1335 60.9375 5.1256 65.8204 3.32728C62.1718 6.82244 63.4792 8.6538 64.8126 8.6538H68.4282C70.6772 8.83787 73.0231 9.09275 74.5642 12.4652C75.1707 14.1172 76.3035 15.3066 77.8162 15.8966C77.4882 16.7179 77.2357 18.1245 78.8617 18.8608C77.6322 21.7659 74.9347 24.4729 69.0937 23.8899C68.322 23.8121 67.6399 24.3737 67.562 25.1431C67.4865 25.9125 68.0458 26.5969 68.8152 26.6747C68.8718 26.6795 68.9261 26.6842 68.9828 26.6889C68.2606 31.1493 68.5226 36.9903 69.7144 42.5575C70.951 48.3442 73.0443 53.1563 75.6922 56.38C74.1936 57.1966 73.101 58.4592 72.5322 60.0829C72.2112 60.9962 72.8933 61.9449 73.8514 61.9449C74.4296 61.9449 74.9701 61.5838 75.1707 61.008C75.7796 59.2757 77.2522 58.5772 78.477 58.3034C84.259 58.5748 84.0089 64.9303 78.9962 64.9303H84.6461C85.2573 63.9792 85.5688 62.8795 85.5688 61.7844C85.5688 58.6456 83.1286 55.8042 78.8263 55.5163Z" fill="white"/>
<path d="M15.34 66.4664C15.34 66.4664 27.7134 59.8088 41.6587 64.635C55.6062 69.4588 58.5822 72.3404 72.0767 65.8929C72.0767 65.8929 64.0645 76.671 40.1955 67.1201C40.1955 67.1177 26.5146 61.4632 15.34 66.4664Z" fill="white"/>
<path d="M37.3398 61.7798C37.3398 61.7798 49.7133 55.1199 63.6585 59.9461C77.6038 64.7699 80.5797 67.6515 94.0742 61.204C94.0742 61.204 86.0644 71.9821 62.1953 62.4312C62.1953 62.4312 48.5144 56.7766 37.3398 61.7798Z" fill="white"/>
<path d="M6.10352e-05 72.7867C6.10352e-05 72.7867 12.3759 66.1268 26.3187 70.9553C40.264 75.7792 43.2423 78.6584 56.7368 72.2109C56.7368 72.2109 48.7246 82.989 24.8556 73.4357C24.8556 73.4357 11.177 67.7835 6.10352e-05 72.7867Z" fill="white"/>
<path d="M108.84 62.6475V65.6683H107.903V57.6733H110.099C110.954 57.6733 111.618 57.882 112.086 58.2994C112.555 58.7167 112.791 59.3017 112.791 60.0612C112.791 60.8207 112.531 61.4399 112.008 61.9222C111.484 62.4046 110.78 62.6475 109.894 62.6475H108.84ZM108.84 58.5217V61.7991H109.822C110.468 61.7991 110.961 61.652 111.303 61.3544C111.642 61.0601 111.813 60.6428 111.813 60.1023C111.813 59.0452 111.187 58.5183 109.938 58.5183H108.84V58.5217Z" fill="white"/>
<path d="M118.535 65.6683H114.3V57.6733H118.357V58.5217H115.234V61.1799H118.121V62.0215H115.234V64.8199H118.535V65.6683Z" fill="white"/>
<path d="M124.826 58.5217H122.517V65.6683H121.58V58.5217H119.278V57.6733H124.823V58.5217H124.826Z" fill="white"/>
<path d="M136.482 65.6683H132.332V57.6733H133.27V64.8199H136.482V65.6683Z" fill="white"/>
<path d="M140.543 65.8018C139.41 65.8018 138.5 65.4289 137.82 64.6797C137.139 63.9339 136.797 62.9624 136.797 61.765C136.797 60.4787 137.146 59.4524 137.84 58.6861C138.535 57.9198 139.482 57.5366 140.676 57.5366C141.781 57.5366 142.671 57.9095 143.344 58.6519C144.018 59.3942 144.357 60.3658 144.357 61.5666C144.357 62.87 144.012 63.9031 143.321 64.6592C142.626 65.4221 141.702 65.8018 140.543 65.8018ZM140.608 58.3885C139.766 58.3885 139.085 58.6929 138.562 59.2984C138.038 59.904 137.775 60.7011 137.775 61.6829C137.775 62.6682 138.032 63.4618 138.541 64.0605C139.051 64.6592 139.718 64.9602 140.539 64.9602C141.415 64.9602 142.106 64.6729 142.612 64.1016C143.119 63.5302 143.372 62.7297 143.372 61.7C143.372 60.6463 143.126 59.8287 142.636 59.254C142.147 58.6758 141.47 58.3885 140.608 58.3885Z" fill="white"/>
<path d="M151.87 57.6733L148.91 65.6683H147.881L144.983 57.6733H146.027L148.24 64.0125C148.312 64.2178 148.363 64.4538 148.401 64.7207H148.425C148.455 64.4983 148.517 64.2588 148.609 64.0022L150.867 57.6733H151.87Z" fill="white"/>
<path d="M157.254 65.6683H153.016V57.6733H157.073V58.5217H153.95V61.1799H156.837V62.0215H153.95V64.8199H157.251V65.6683H157.254Z" fill="white"/>
<path d="M170.49 65.3331C169.898 65.6444 169.163 65.8018 168.284 65.8018C167.148 65.8018 166.235 65.4358 165.55 64.7037C164.866 63.9716 164.524 63.0103 164.524 61.8232C164.524 60.5437 164.907 59.5105 165.677 58.7237C166.447 57.9369 167.422 57.5435 168.605 57.5435C169.365 57.5435 169.991 57.6529 170.49 57.8719V58.8708C169.919 58.5527 169.286 58.3919 168.595 58.3919C167.678 58.3919 166.932 58.6998 166.361 59.3121C165.79 59.9245 165.506 60.7455 165.506 61.7718C165.506 62.7468 165.773 63.52 166.306 64.0981C166.84 64.6763 167.538 64.9637 168.407 64.9637C169.211 64.9637 169.905 64.7858 170.49 64.43V65.3331Z" fill="white"/>
<path d="M178.307 65.6683H177.271L176.422 63.4275H173.032L172.235 65.6683H171.192L174.257 57.6733H175.228L178.307 65.6683ZM176.114 62.5859L174.859 59.1786C174.818 59.0657 174.777 58.8878 174.736 58.6449H174.715C174.678 58.8707 174.637 59.0486 174.585 59.1786L173.343 62.5859H176.114Z" fill="white"/>
<path d="M185.214 65.6683H184.099L182.762 63.4275C182.638 63.2188 182.519 63.0409 182.406 62.8938C182.289 62.7467 182.173 62.627 182.05 62.5346C181.93 62.4422 181.8 62.3738 181.66 62.3328C181.52 62.2917 181.362 62.2678 181.188 62.2678H180.418V65.6683H179.481V57.6733H181.869C182.218 57.6733 182.539 57.7178 182.837 57.8033C183.131 57.8923 183.388 58.0223 183.607 58.2036C183.822 58.3815 183.993 58.6039 184.116 58.8707C184.239 59.1375 184.301 59.4488 184.301 59.8046C184.301 60.0817 184.26 60.3383 184.174 60.5709C184.089 60.8036 183.973 61.0123 183.819 61.1936C183.665 61.3749 183.48 61.5323 183.261 61.6588C183.042 61.7888 182.799 61.888 182.529 61.9565V61.9804C182.662 62.0386 182.779 62.107 182.878 62.1822C182.977 62.2575 183.069 62.3499 183.158 62.4525C183.247 62.5551 183.336 62.6749 183.422 62.8083C183.507 62.9417 183.607 63.0922 183.716 63.2667L185.214 65.6683ZM180.418 58.5217V61.4194H181.691C181.923 61.4194 182.142 61.3851 182.341 61.3133C182.539 61.2415 182.71 61.1423 182.857 61.0088C183.004 60.8754 183.114 60.7146 183.196 60.523C183.278 60.3315 183.319 60.1159 183.319 59.8799C183.319 59.4523 183.182 59.1204 182.905 58.881C182.628 58.6415 182.228 58.5217 181.705 58.5217H180.418Z" fill="white"/>
<path d="M190.551 65.6683H186.312V57.6733H190.37V58.5217H187.246V61.1799H190.134V62.0215H187.246V64.8199H190.548V65.6683H190.551Z" fill="white"/>
<path d="M128.388 62.7843C129.179 62.7843 129.821 62.1425 129.821 61.3509C129.821 60.5592 129.179 59.9175 128.388 59.9175C127.596 59.9175 126.954 60.5592 126.954 61.3509C126.954 62.1425 127.596 62.7843 128.388 62.7843Z" fill="white"/>
<path d="M160.87 62.7843C161.662 62.7843 162.304 62.1425 162.304 61.3509C162.304 60.5592 161.662 59.9175 160.87 59.9175C160.079 59.9175 159.437 60.5592 159.437 61.3509C159.437 62.1425 160.079 62.7843 160.87 62.7843Z" fill="white"/>
<path d="M114.009 46.5452H108.806L101.215 36.2411L98.5394 39.1729V46.5486H94.1639V22.6904H98.5394V33.2443L107.975 22.6904H113.578L104.109 33.1006L114.009 46.5452Z" fill="white"/>
<path d="M129.537 30.2986C130.923 31.5883 131.617 33.4015 131.617 35.738V46.545H127.351V43.1822C127.013 44.3864 126.322 45.3203 125.271 45.984C124.224 46.6477 122.914 46.9795 121.351 46.9795C119.544 46.9795 118.104 46.5108 117.03 45.5701C115.956 44.6293 115.422 43.3772 115.422 41.8103C115.422 40.1238 116.041 38.7691 117.283 37.7428C118.525 36.7199 120.143 36.2067 122.144 36.2067C123.516 36.2067 124.645 36.4907 125.524 37.0551C126.404 37.623 127.013 38.4338 127.351 39.4943V35.8783C127.351 34.6022 127.026 33.5896 126.376 32.8404C125.726 32.0946 124.833 31.7183 123.701 31.7183C122.64 31.7183 121.785 32.057 121.135 32.731C120.485 33.4049 120.16 34.3217 120.16 35.478L115.641 33.9249C116.028 32.1904 116.931 30.8289 118.351 29.8402C119.774 28.8515 121.556 28.3589 123.701 28.3589C126.205 28.3623 128.152 29.0089 129.537 30.2986ZM126.339 43.1651C127.013 42.7203 127.351 42.1114 127.351 41.3382C127.351 40.5685 127.013 39.963 126.339 39.5319C125.665 39.0975 124.734 38.8819 123.554 38.8819C122.398 38.8819 121.474 39.1043 120.79 39.5491C120.102 39.9938 119.76 40.5925 119.76 41.3382C119.76 42.1114 120.102 42.7169 120.79 43.1651C121.477 43.6098 122.398 43.8322 123.554 43.8322C124.734 43.8356 125.661 43.6132 126.339 43.1651Z" fill="white"/>
<path d="M140.615 46.5451H136.349V21.2397H140.615V46.5451Z" fill="white"/>
<path d="M157.029 28.7969H161.295V46.5451H157.029V41.9541C156.666 43.5449 155.985 44.7799 154.986 45.6591C153.987 46.5383 152.752 46.9796 151.281 46.9796C149.451 46.9796 147.997 46.2749 146.926 44.8654C145.852 43.456 145.318 41.547 145.318 39.1352V28.7969H149.584V38.5571C149.584 40.1478 149.909 41.3657 150.559 42.2073C151.209 43.0489 152.126 43.4731 153.307 43.4731C154.487 43.4731 155.404 43.0523 156.054 42.2073C156.704 41.3623 157.029 40.1478 157.029 38.5571V28.7969Z" fill="white"/>
<path d="M180.74 29.5186C181.848 30.2918 182.71 31.3796 183.323 32.7891C183.938 34.1986 184.243 35.8304 184.243 37.688C184.243 39.5183 183.935 41.1398 183.323 42.5493C182.707 43.9588 181.845 45.0501 180.74 45.8198C179.631 46.5895 178.366 46.9761 176.942 46.9761C175.328 46.9761 173.983 46.4629 172.912 45.4401C171.838 44.4172 171.099 42.9632 170.689 41.0851V53.7737H166.426V28.7934H170.692V34.2533C171.103 32.3752 171.842 30.9212 172.916 29.8984C173.987 28.8755 175.331 28.3623 176.946 28.3623C178.366 28.3623 179.631 28.7489 180.74 29.5186ZM178.626 41.954C179.481 40.8456 179.908 39.4225 179.908 37.688C179.908 35.9296 179.481 34.4962 178.626 33.3878C177.77 32.2794 176.669 31.7252 175.317 31.7252C173.946 31.7252 172.83 32.2725 171.975 33.3707C171.12 34.4688 170.692 35.9057 170.692 37.6914C170.692 39.4738 171.12 40.9072 171.975 41.9917C172.83 43.0761 173.946 43.6166 175.317 43.6166C176.669 43.6166 177.77 43.0624 178.626 41.954Z" fill="white"/>
<path d="M204.218 32.7549C203.483 31.3454 202.436 30.261 201.074 29.5015C199.713 28.742 198.129 28.3623 196.319 28.3623C194.513 28.3623 192.929 28.742 191.567 29.5015C190.206 30.261 189.156 31.3454 188.423 32.7549C187.688 34.1644 187.318 35.8099 187.318 37.688C187.318 39.5696 187.688 41.2083 188.423 42.604C189.156 44.0032 190.206 45.0808 191.567 45.8403C192.929 46.5998 194.513 46.9795 196.319 46.9795C198.129 46.9795 199.713 46.5998 201.074 45.8403C202.436 45.0808 203.483 44.0032 204.218 42.604C204.954 41.2083 205.32 39.5696 205.32 37.688C205.32 35.8099 204.954 34.1644 204.218 32.7549ZM196.617 33.6786C196.822 32.3854 197.664 31.4481 198.498 31.5781C199.33 31.7115 199.839 32.8678 199.634 34.1609C199.425 35.4541 198.584 36.3914 197.753 36.2614C196.918 36.128 196.408 34.9717 196.617 33.6786ZM193.976 31.6602C194.804 31.4994 195.679 32.406 195.933 33.6923C196.186 34.9752 195.717 36.1486 194.889 36.3128C194.061 36.477 193.186 35.567 192.932 34.2807C192.679 32.9978 193.148 31.8244 193.976 31.6602ZM190.822 38.0164C190.076 37.0243 189.987 35.8304 190.623 35.348C191.263 34.8657 192.385 35.2796 193.134 36.2683C193.883 37.2604 193.972 38.4509 193.333 38.9333C192.696 39.4156 191.571 39.0051 190.822 38.0164ZM199.6 42.9017C198.536 43.2164 197.602 42.0259 196.439 42.0704H196.415C195.252 42.0669 194.362 43.2951 193.285 43.018C192.207 42.7409 191.848 41.3143 193.565 39.6346C194.735 38.4885 195.019 37.2467 196.336 37.1886C197.657 37.1988 197.985 38.4304 199.196 39.5319C200.975 41.1501 200.667 42.5835 199.6 42.9017ZM201.878 37.8146C201.167 38.8306 200.058 39.2822 199.402 38.8238C198.748 38.3654 198.793 37.168 199.504 36.152C200.216 35.1359 201.324 34.6844 201.981 35.1428C202.634 35.6012 202.59 36.7951 201.878 37.8146Z" fill="white"/>
</svg>
