<svg width="154" height="60" viewBox="0 0 154 60" fill="none" xmlns="http://www.w3.org/2000/svg">
<path d="M37.0368 37.9318C37.1728 37.9856 37.3058 38.0469 37.4358 38.1171C37.8004 38.3129 38.1097 38.5579 38.4205 38.6386C38.4952 38.6581 38.564 38.6835 38.6253 38.7134C39.0422 37.7749 39.2753 36.7379 39.2753 35.6455C39.2753 33.3472 37.905 28.4443 35.2047 21.0743C34.5876 19.3902 33.9615 17.745 33.3742 16.2432L32.4746 18.8044C34.8401 25.0074 37.5045 32.751 37.5045 35.644C37.506 36.4584 37.3386 37.231 37.0368 37.9318Z" fill="#3399FF"/>
<path d="M28.7061 12.8687C28.7076 12.8642 28.7076 12.8597 28.7091 12.8552C28.3728 11.9945 27.8394 10.811 27.1833 9.98611C27.2342 10.7019 27.3373 11.603 27.1266 12.5578C26.7037 14.4751 26.4347 15.4359 25.3573 16.2189C24.5234 16.8241 23.4221 16.7061 22.7273 16.3221C22.2954 16.083 22.0503 15.7139 21.998 15.2267C21.8994 14.3152 22.001 13.4559 23.9272 10.9783C25.1406 9.41677 25.5246 7.43679 24.6011 5.68992C24.8223 5.80349 25.0793 5.95292 25.3199 6.12776C25.3199 6.12776 26.5557 6.91079 27.8468 8.57547C28.2219 9.05813 29.5354 10.7901 30.7055 14.3017C30.6786 14.369 30.6502 14.4407 30.6218 14.5079C30.6487 14.5094 30.6771 14.5139 30.7055 14.5169C30.8056 14.5319 30.8698 14.5573 30.8788 14.5587C30.949 14.5722 31.1523 13.9954 31.6529 11.9721C30.9565 10.2984 29.5384 6.26673 25.4499 4.14329C23.6493 3.20785 21.88 2.91346 20.0315 3.02853C18.4879 3.12267 15.2795 3.31693 13.5491 7.19471C13.4968 7.24701 13.0754 7.60415 11.2538 7.79991C10.1361 7.91946 9.1005 7.91049 9.09004 7.909H9.07958C8.59542 7.909 8.20092 8.29752 8.19494 8.78318C8.13068 13.8086 10.3961 15.9978 12.0951 16.9317C12.0981 16.9332 12.0996 16.9347 12.1011 16.9362C13.1247 17.5519 14.4173 17.6968 15.6158 17.6968C16.2658 17.6968 16.8575 17.655 17.2999 17.6102C17.6331 19.7112 18.2518 28.2094 14.0437 35.5017C11.3435 35.702 9.82226 37.4996 9.82226 39.4662C9.82226 40.1595 10.0195 40.8559 10.405 41.4581C10.405 41.4581 10.4484 41.5373 10.541 41.6584C10.5575 41.6509 10.5754 41.6479 10.5933 41.6419C10.7159 41.5597 10.8653 41.5029 11.0416 41.4865C11.1029 41.4551 11.1657 41.4267 11.2344 41.4073C11.3256 41.3954 11.4167 41.3834 11.5064 41.3699C11.5527 41.3685 11.596 41.3714 11.6394 41.3774C11.6857 41.349 11.732 41.3191 11.7798 41.2908C11.998 41.1593 12.2401 41.1264 12.4672 41.1697C12.5046 41.1533 12.5419 41.1398 12.5793 41.1294C11.9068 40.7543 11.59 40.1102 11.59 39.4662C11.59 38.205 12.6929 37.3129 14.3874 37.2606C15.1645 37.4324 16.1059 37.8732 16.4929 38.976C16.6558 39.4393 17.1609 39.6799 17.6226 39.5185C18.0844 39.3571 18.3265 38.8505 18.1651 38.3903C17.7661 37.2531 16.9636 36.3938 15.8534 35.8903C19.7954 28.6891 19.498 20.3911 19.0677 17.5504C18.9885 17.0259 18.7822 16.3684 18.7419 16.2772C18.582 15.9171 18.1935 15.6989 17.79 15.7662C17.0204 15.8917 14.9254 16.1128 13.4744 15.6257C13.4326 15.6122 13.3922 15.5973 13.3519 15.5809C11.7649 14.889 10.7144 13.5292 10.2452 11.5895C10.8205 11.4595 11.6528 10.9903 12.1953 9.46011C13.8659 9.19561 14.8148 8.70547 15.157 7.9344C15.9744 6.0904 17.137 5.34174 18.4236 5.02196C19.0886 4.85609 20.8026 4.62447 22.261 5.60026C22.669 5.87372 22.9977 6.32053 23.195 6.89136C23.5237 7.84474 23.2861 8.9102 22.524 9.89047C20.5485 12.4323 20.0509 13.7294 20.2332 15.4165C20.3483 16.479 20.9281 17.3516 21.865 17.8717C23.1531 18.586 24.8387 18.6099 26.1254 17.8149C27.5151 16.9586 28.3175 15.4359 28.7061 12.8687Z" fill="#3399FF"/>
<path d="M49.9119 35.1523C49.8731 35.1419 49.8342 35.1344 49.7939 35.1299C46.1522 31.3956 44.4831 22.3519 45.4738 16.9171C48.7867 16.6586 51.1179 14.7129 51.9876 11.3896C52.3716 9.92063 51.6902 8.78793 50.2766 8.52045C49.5832 8.38895 49.1229 7.97801 48.8689 7.26372C48.8614 7.24131 48.8525 7.21889 48.842 7.19648C47.5061 4.23323 45.1914 3.86712 43.6582 3.73113C43.6582 3.72516 43.6642 3.7132 43.6582 3.7132C43.1038 3.74458 42.4164 3.74309 42.784 3.33514C43.7628 2.24876 43.9346 1.73621 44.0482 1.3417C44.2978 0.469018 43.3713 -0.10032 42.6779 0.0147432C38.8689 0.643855 35.1345 4.04644 33.162 8.65793C32.9035 9.26014 32.4657 10.2957 31.9173 11.6227C31.6005 12.3982 31.2837 13.1753 30.9684 13.9508C28.2905 20.6006 24.3739 31.0534 24.3739 35.2988C24.3739 36.4763 24.6429 37.5911 25.1241 38.5863C25.1315 38.5818 25.139 38.5743 25.1465 38.5699C25.674 38.271 26.2418 38.1365 26.8321 38.0364C26.3942 37.2205 26.1447 36.288 26.1447 35.2988C26.1447 30.8113 31.1821 18.1544 32.8766 13.9703C32.8766 13.9688 32.8751 13.9688 32.8751 13.9673C33.821 11.6331 34.5533 9.90868 34.7909 9.35279C36.0461 6.41644 38.5849 3.24548 41.6767 2.1068C39.3665 4.3199 40.1943 5.47949 41.0386 5.47949H43.3279C44.752 5.59605 46.2374 5.75744 47.2132 7.89283C47.5972 8.93886 48.3145 9.692 49.2724 10.0656C49.0647 10.5856 48.9048 11.4762 49.9344 11.9425C49.1558 13.782 47.4478 15.496 43.7493 15.1269C43.2607 15.0776 42.8288 15.4332 42.7795 15.9204C42.7317 16.4075 43.0859 16.8409 43.573 16.8902C43.6089 16.8932 43.6432 16.8961 43.6791 16.8991C43.2218 19.7234 43.3877 23.4219 44.1423 26.947C44.9254 30.6111 46.2508 33.658 47.9275 35.6993C46.9786 36.2163 46.2867 37.0158 45.9266 38.0439C45.7233 38.6222 46.1552 39.2229 46.7619 39.2229C47.128 39.2229 47.4702 38.9942 47.5972 38.6296C47.9828 37.5328 48.9152 37.0905 49.6908 36.9171C53.3519 37.089 53.1935 41.1132 50.0195 41.1132H53.597C53.984 40.511 54.1812 39.8146 54.1812 39.1213C54.1812 37.1338 52.6361 35.3346 49.9119 35.1523Z" fill="#FF914D"/>
<path d="M9.71301 42.0859C9.71301 42.0859 17.5478 37.8704 26.3777 40.9263C35.2092 43.9807 37.0936 45.8052 45.6381 41.7227C45.6381 41.7227 40.5649 48.5473 25.4513 42.4998C25.4513 42.4983 16.7886 38.9179 9.71301 42.0859Z" fill="#3399FF"/>
<path d="M23.6432 39.1183C23.6432 39.1183 31.4779 34.9014 40.3079 37.9572C49.1379 41.0117 51.0222 42.8362 59.5668 38.7537C59.5668 38.7537 54.4951 45.5783 39.3814 39.5308C39.3814 39.5308 30.7188 35.9504 23.6432 39.1183Z" fill="#FF914D"/>
<path d="M0 46.0875C0 46.0875 7.83625 41.8705 16.6647 44.9279C25.4947 47.9823 27.3805 49.8054 35.9251 45.7229C35.9251 45.7229 30.8519 52.5475 15.7382 46.4984C15.7382 46.4984 7.07713 42.9195 0 46.0875Z" fill="#FF914D"/>
<path d="M68.9165 39.6681V41.5809H68.323V36.5186H69.7137C70.2552 36.5186 70.6754 36.6507 70.9722 36.915C71.269 37.1792 71.4184 37.5496 71.4184 38.0305C71.4184 38.5114 71.2538 38.9035 70.9224 39.2089C70.591 39.5143 70.1447 39.6681 69.5837 39.6681H68.9165ZM68.9165 37.0558V39.1309H69.5382C69.9476 39.1309 70.2595 39.0378 70.4762 38.8493C70.6906 38.663 70.7989 38.3988 70.7989 38.0565C70.7989 37.3872 70.4025 37.0536 69.6119 37.0536H68.9165V37.0558Z" fill="#FF914D"/>
<path d="M75.0552 41.5809H72.3735V36.5186H74.9426V37.0558H72.9649V38.7389H74.7931V39.2717H72.9649V41.0437H75.0552V41.5809Z" fill="#FF914D"/>
<path d="M79.0389 37.0558H77.5767V41.5809H76.9832V37.0558H75.5254V36.5186H79.0367V37.0558H79.0389Z" fill="#FF914D"/>
<path d="M86.4189 41.5809H83.7914V36.5186H84.3849V41.0437H86.4189V41.5809Z" fill="#FF914D"/>
<path d="M88.9901 41.6651C88.2731 41.6651 87.6969 41.429 87.2658 40.9546C86.8348 40.4823 86.6182 39.8672 86.6182 39.109C86.6182 38.2945 86.8391 37.6447 87.2788 37.1595C87.7186 36.6742 88.3186 36.4316 89.0746 36.4316C89.7743 36.4316 90.3375 36.6677 90.7642 37.1378C91.1909 37.6079 91.4054 38.2231 91.4054 38.9834C91.4054 39.8087 91.1866 40.4629 90.749 40.9416C90.3093 41.4246 89.7244 41.6651 88.9901 41.6651ZM89.0313 36.971C88.4984 36.971 88.0673 37.1638 87.7359 37.5472C87.4045 37.9306 87.2377 38.4353 87.2377 39.057C87.2377 39.6809 87.4001 40.1834 87.7229 40.5625C88.0457 40.9416 88.4681 41.1322 88.9879 41.1322C89.5425 41.1322 89.98 40.9502 90.3006 40.5885C90.6212 40.2267 90.7815 39.7199 90.7815 39.0679C90.7815 38.4007 90.6256 37.883 90.3158 37.519C90.006 37.153 89.5771 36.971 89.0313 36.971Z" fill="#FF914D"/>
<path d="M96.1622 36.5186L94.2885 41.5809H93.6365L91.8018 36.5186H92.4624L93.8639 40.5324C93.9094 40.6624 93.9419 40.8119 93.9658 40.9808H93.9809C94.0004 40.84 94.0394 40.6884 94.0979 40.5259L95.5275 36.5186H96.1622Z" fill="#FF914D"/>
<path d="M99.5719 41.5809H96.8881V36.5186H99.4571V37.0558H97.4794V38.7389H99.3077V39.2717H97.4794V41.0437H99.5698V41.5809H99.5719Z" fill="#FF914D"/>
<path d="M107.953 41.3684C107.578 41.5655 107.112 41.6651 106.555 41.6651C105.836 41.6651 105.258 41.4334 104.825 40.9698C104.391 40.5062 104.175 39.8976 104.175 39.1459C104.175 38.3358 104.417 37.6816 104.905 37.1834C105.392 36.6851 106.01 36.436 106.759 36.436C107.24 36.436 107.636 36.5054 107.953 36.644V37.2765C107.591 37.0751 107.19 36.9732 106.753 36.9732C106.172 36.9732 105.7 37.1682 105.338 37.5559C104.976 37.9437 104.796 38.4636 104.796 39.1134C104.796 39.7308 104.965 40.2203 105.303 40.5864C105.641 40.9525 106.083 41.1344 106.633 41.1344C107.142 41.1344 107.582 41.0218 107.953 40.7965V41.3684Z" fill="#FF914D"/>
<path d="M112.902 41.5809H112.246L111.709 40.162H109.562L109.057 41.5809H108.397L110.338 36.5186H110.953L112.902 41.5809ZM111.514 39.6292L110.719 37.4717C110.693 37.4002 110.667 37.2875 110.641 37.1337H110.628C110.604 37.2767 110.578 37.3893 110.546 37.4717L109.759 39.6292H111.514Z" fill="#FF914D"/>
<path d="M117.276 41.5809H116.57L115.723 40.162C115.645 40.0299 115.569 39.9173 115.497 39.8241C115.424 39.731 115.35 39.6551 115.272 39.5967C115.196 39.5382 115.114 39.4949 115.025 39.4689C114.936 39.4429 114.837 39.4277 114.726 39.4277H114.239V41.5809H113.645V36.5186H115.157C115.378 36.5186 115.582 36.5467 115.77 36.6009C115.957 36.6572 116.119 36.7395 116.258 36.8543C116.394 36.9669 116.502 37.1077 116.58 37.2767C116.658 37.4457 116.697 37.6428 116.697 37.8681C116.697 38.0435 116.671 38.206 116.617 38.3533C116.563 38.5006 116.489 38.6327 116.392 38.7475C116.294 38.8623 116.177 38.962 116.039 39.0421C115.9 39.1244 115.746 39.1873 115.575 39.2306V39.2457C115.66 39.2826 115.733 39.3259 115.796 39.3735C115.859 39.4212 115.918 39.4797 115.974 39.5447C116.03 39.6097 116.087 39.6855 116.141 39.77C116.195 39.8544 116.258 39.9497 116.327 40.0602L117.276 41.5809ZM114.239 37.0558V38.8905H115.045C115.192 38.8905 115.331 38.8688 115.456 38.8233C115.582 38.7779 115.69 38.715 115.783 38.6306C115.876 38.5461 115.946 38.4443 115.998 38.323C116.05 38.2017 116.076 38.0652 116.076 37.9157C116.076 37.645 115.989 37.4348 115.814 37.2832C115.638 37.1316 115.385 37.0558 115.053 37.0558H114.239Z" fill="#FF914D"/>
<path d="M120.655 41.5809H117.971V36.5186H120.54V37.0558H118.563V38.7389H120.391V39.2717H118.563V41.0437H120.653V41.5809H120.655Z" fill="#FF914D"/>
<path d="M81.2937 39.7547C81.795 39.7547 82.2013 39.3483 82.2013 38.8471C82.2013 38.3458 81.795 37.9395 81.2937 37.9395C80.7925 37.9395 80.3861 38.3458 80.3861 38.8471C80.3861 39.3483 80.7925 39.7547 81.2937 39.7547Z" fill="#FF914D"/>
<path d="M101.862 39.7547C102.363 39.7547 102.769 39.3483 102.769 38.8471C102.769 38.3458 102.363 37.9395 101.862 37.9395C101.36 37.9395 100.954 38.3458 100.954 38.8471C100.954 39.3483 101.36 39.7547 101.862 39.7547Z" fill="#FF914D"/>
<path d="M72.1894 29.4718H68.8947L64.088 22.9473L62.3941 24.8037V29.474H59.6235V14.3672H62.3941V21.0498L68.3683 14.3672H71.9165L65.9206 20.9588L72.1894 29.4718Z" fill="#3399FF"/>
<path d="M82.0218 19.1848C82.8991 20.0014 83.3388 21.1495 83.3388 22.6289V29.4718H80.6376V27.3425C80.4232 28.105 79.9856 28.6963 79.3206 29.1166C78.6578 29.5368 77.8281 29.7469 76.8382 29.7469C75.6944 29.7469 74.7825 29.4502 74.1023 28.8545C73.4222 28.2588 73.0842 27.466 73.0842 26.4739C73.0842 25.406 73.4763 24.5482 74.2626 23.8983C75.0489 23.2506 76.0735 22.9257 77.3407 22.9257C78.2094 22.9257 78.9242 23.1055 79.4809 23.4629C80.0376 23.8225 80.4232 24.3359 80.6376 25.0074V22.7178C80.6376 21.9098 80.4318 21.2686 80.0203 20.7942C79.6087 20.322 79.0433 20.0837 78.3263 20.0837C77.6548 20.0837 77.1133 20.2982 76.7017 20.7249C76.2901 21.1516 76.0844 21.7322 76.0844 22.4643L73.2229 21.4809C73.4676 20.3826 74.0395 19.5205 74.9385 18.8945C75.8396 18.2685 76.9681 17.9565 78.3263 17.9565C79.912 17.9587 81.1445 18.3681 82.0218 19.1848ZM79.9964 27.3317C80.4232 27.0501 80.6376 26.6645 80.6376 26.1749C80.6376 25.6876 80.4232 25.3041 79.9964 25.0312C79.5697 24.7561 78.9805 24.6196 78.2332 24.6196C77.501 24.6196 76.9162 24.7604 76.4829 25.042C76.0475 25.3236 75.8309 25.7027 75.8309 26.1749C75.8309 26.6645 76.0475 27.0479 76.4829 27.3317C76.9183 27.6133 77.501 27.7541 78.2332 27.7541C78.9805 27.7562 79.5675 27.6154 79.9964 27.3317Z" fill="#3399FF"/>
<path d="M89.0358 29.4718H86.3346V13.4487H89.0358V29.4718Z" fill="#3399FF"/>
<path d="M99.4288 18.2339H102.13V29.4719H99.4288V26.5649C99.1992 27.5722 98.7681 28.3542 98.1356 28.9109C97.5031 29.4676 96.7211 29.747 95.7897 29.747C94.6308 29.747 93.7101 29.3008 93.0321 28.4083C92.352 27.5159 92.014 26.3072 92.014 24.78V18.2339H94.7152V24.4139C94.7152 25.4212 94.921 26.1923 95.3326 26.7252C95.7442 27.2581 96.3247 27.5267 97.072 27.5267C97.8193 27.5267 98.3999 27.2603 98.8114 26.7252C99.223 26.1902 99.4288 25.4212 99.4288 24.4139V18.2339Z" fill="#3399FF"/>
<path d="M114.442 18.6907C115.144 19.1802 115.69 19.869 116.078 20.7615C116.468 21.654 116.661 22.6872 116.661 23.8634C116.661 25.0223 116.466 26.0491 116.078 26.9416C115.688 27.834 115.142 28.525 114.442 29.0124C113.741 29.4998 112.939 29.7446 112.038 29.7446C111.016 29.7446 110.164 29.4196 109.486 28.772C108.806 28.1243 108.338 27.2037 108.078 26.0144V34.0487H105.379V18.2314H108.08V21.6886C108.34 20.4994 108.808 19.5788 109.488 18.9311C110.166 18.2834 111.018 17.9585 112.04 17.9585C112.939 17.9585 113.741 18.2033 114.442 18.6907ZM113.104 26.5646C113.645 25.8628 113.916 24.9617 113.916 23.8634C113.916 22.75 113.645 21.8424 113.104 21.1406C112.562 20.4387 111.865 20.0878 111.009 20.0878C110.14 20.0878 109.434 20.4344 108.893 21.1298C108.351 21.8251 108.08 22.7349 108.08 23.8656C108.08 24.9942 108.351 25.9018 108.893 26.5885C109.434 27.2751 110.14 27.6174 111.009 27.6174C111.865 27.6174 112.562 27.2665 113.104 26.5646Z" fill="#3399FF"/>
<path d="M129.309 20.7398C128.843 19.8474 128.18 19.1607 127.318 18.6798C126.456 18.1989 125.453 17.9585 124.307 17.9585C123.164 17.9585 122.161 18.1989 121.299 18.6798C120.436 19.1607 119.771 19.8474 119.308 20.7398C118.842 21.6323 118.608 22.6742 118.608 23.8634C118.608 25.0548 118.842 26.0924 119.308 26.9762C119.771 27.8622 120.436 28.5445 121.299 29.0254C122.161 29.5063 123.164 29.7467 124.307 29.7467C125.453 29.7467 126.456 29.5063 127.318 29.0254C128.18 28.5445 128.843 27.8622 129.309 26.9762C129.775 26.0924 130.006 25.0548 130.006 23.8634C130.006 22.6742 129.775 21.6323 129.309 20.7398ZM124.496 21.3247C124.626 20.5059 125.159 19.9124 125.687 19.9947C126.214 20.0792 126.536 20.8113 126.406 21.6301C126.274 22.4489 125.741 23.0425 125.215 22.9602C124.686 22.8757 124.364 22.1435 124.496 21.3247ZM122.823 20.0467C123.348 19.9449 123.902 20.5189 124.063 21.3334C124.223 22.1457 123.926 22.8887 123.402 22.9927C122.878 23.0966 122.323 22.5204 122.163 21.706C122.003 20.8936 122.299 20.1507 122.823 20.0467ZM120.826 24.0714C120.354 23.4432 120.298 22.6872 120.701 22.3818C121.106 22.0764 121.816 22.3385 122.291 22.9645C122.765 23.5927 122.821 24.3465 122.416 24.6519C122.013 24.9574 121.301 24.6974 120.826 24.0714ZM126.385 27.1647C125.711 27.364 125.12 26.6101 124.383 26.6383H124.368C123.631 26.6361 123.068 27.4138 122.386 27.2383C121.704 27.0629 121.476 26.1596 122.564 25.096C123.304 24.3703 123.484 23.584 124.318 23.5472C125.154 23.5537 125.362 24.3335 126.129 25.031C127.255 26.0556 127.061 26.9632 126.385 27.1647ZM127.827 23.9436C127.377 24.5869 126.675 24.8729 126.259 24.5826C125.845 24.2923 125.873 23.5342 126.324 22.8908C126.775 22.2475 127.476 21.9616 127.892 22.2518C128.306 22.5421 128.278 23.2981 127.827 23.9436Z" fill="#3399FF"/>
</svg>
