<svg version="1.1" xmlns="http://www.w3.org/2000/svg" xmlns:xlink="http://www.w3.org/1999/xlink" width="50px" height="50px" viewBox="0,0,256,256">
  <g fill="#ffffff" fill-rule="nonzero" stroke="none" stroke-width="1" stroke-linecap="butt" stroke-linejoin="miter" stroke-miterlimit="10" stroke-dasharray="" stroke-dashoffset="0" font-family="none" font-weight="none" font-size="none" text-anchor="none" style="mix-blend-mode: normal">
    <g transform="scale(5.12,5.12)">
      <path d="M28,0c-5.38672,0 -9.76953,4.28516 -9.96875,9.625l-5,2.28125l-11.59375,-5.8125c-0.17578,-0.08594 -0.37109,-0.11719 -0.5625,-0.09375c-0.50391,0.0625 -0.87891,0.49219 -0.875,1v36c-0.00391,0.38672 0.21484,0.73828 0.5625,0.90625l12,6c0.27734,0.13281 0.59766,0.13281 0.875,0l11.59375,-5.8125l12.5625,5.8125c0.28125,0.125 0.60547,0.11328 0.875,-0.03125l11,-6c0.32422,-0.17187 0.52734,-0.50781 0.53125,-0.875v-36c-0.00391,-0.34766 -0.1875,-0.67187 -0.48828,-0.85156c-0.30078,-0.17969 -0.67187,-0.1875 -0.98047,-0.02344l-10.6875,5.8125c0.08984,-0.65234 0.15625,-1.29687 0.15625,-1.9375c0,-5.51172 -4.48828,-10 -10,-10zM28,2c4.42969,0 8,3.57031 8,8c0,3.71484 -2.13672,8.37109 -4.34375,12.03125c-1.82422,3.02344 -3.07812,4.52734 -3.65625,5.25c-0.57031,-0.69922 -1.82422,-2.14062 -3.65625,-5.15625c-2.09375,-3.44922 -4.11328,-7.82812 -4.3125,-11.53125c0.09766,-0.25391 0.08594,-0.53516 -0.03125,-0.78125c0.10156,-4.34375 3.63281,-7.8125 8,-7.8125zM28,6c-2.75,0 -5,2.25 -5,5c0,2.75 2.25,5 5,5c2.75,0 5,-2.25 5,-5c0,-2.75 -2.25,-5 -5,-5zM28,8c1.66797,0 3,1.33203 3,3c0,1.66797 -1.33203,3 -3,3c-1.66797,0 -3,-1.33203 -3,-3c0,-1.66797 1.33203,-3 3,-3zM2,8.625l10.5625,5.28125c0.26563,0.125 0.57813,0.125 0.84375,0l4.6875,-2.125c0.49609,4 2.56641,8.08594 4.5625,11.375c2.29297,3.77734 4.59375,6.5 4.59375,6.5c0.19531,0.22266 0.47656,0.34766 0.77344,0.33984c0.29297,-0.00391 0.57422,-0.14062 0.75781,-0.37109c0,0 2.26953,-2.76562 4.5625,-6.5625c1.625,-2.69531 3.26563,-5.90234 4.09375,-9.125l0.4375,0.0625c0.20703,0.01953 0.41406,-0.02344 0.59375,-0.125l9.53125,-5.1875v33.71875l-10.03125,5.46875l-12.5625,-5.78125c-0.26562,-0.125 -0.57812,-0.125 -0.84375,0l-11.5625,5.78125l-11,-5.5z"></path>
    </g>
  </g>
</svg>